<svg width="25" height="29" viewBox="0 0 25 29" fill="none" xmlns="http://www.w3.org/2000/svg">
<path d="M22.8598 14.2677C24.0613 15.6749 24.6614 17.37 24.6602 19.3531C24.6647 21.0282 24.1685 22.6686 23.232 24.075C22.2811 25.5368 20.8144 26.7243 18.832 27.6374C16.8496 28.5506 14.3788 29.0024 11.4198 28.9929C9.3679 28.9936 7.32181 28.7804 5.31667 28.357C3.45694 27.9896 1.66467 27.3526 0 26.4672L3.311 19.4724C4.50861 20.1491 5.79596 20.6633 7.13717 21.0007C8.4261 21.3393 9.75465 21.5147 11.0898 21.5226C12.2192 21.5226 13.1291 21.3349 13.8197 20.9597C14.5102 20.5845 14.8549 20.0501 14.8537 19.3566C14.8512 18.0623 13.7066 17.4151 11.4198 17.4151H7.56983V11.5942L11.8323 7.37272H1.48867V0.21764H23.0872V6.04572L17.71 11.359C19.943 11.8922 21.6596 12.8618 22.8598 14.2677Z" fill="#41454C"/>
</svg>
