<svg width="18" height="21" viewBox="0 0 18 21" fill="none" xmlns="http://www.w3.org/2000/svg">
<path d="M11.8719 20.5298L8.20524 13.9287H6.28024V20.5298H0.899414V0.0851707H9.31624C11.4612 0.0851707 13.2597 0.751933 14.7117 2.08546C16.1637 3.41898 16.8903 5.10815 16.8916 7.15297C16.9021 8.34287 16.5686 9.51175 15.9291 10.5266C15.2914 11.5464 14.3909 12.3869 13.3166 12.965L17.6432 20.5298H11.8719ZM6.28024 4.9051V9.4899H9.25574C9.55614 9.50949 9.85731 9.46477 10.138 9.35889C10.4186 9.25302 10.672 9.08858 10.8801 8.87717C11.0927 8.6535 11.2579 8.39126 11.3661 8.10549C11.4743 7.81971 11.5235 7.516 11.5107 7.21175C11.5235 6.9075 11.4743 6.60379 11.3661 6.31801C11.2579 6.03224 11.0927 5.77 10.8801 5.54633C10.6709 5.3346 10.4181 5.16806 10.1382 5.05758C9.85835 4.94709 9.55766 4.89514 9.25574 4.9051H6.28024Z" fill="#289ED9"/>
</svg>
